<svg xmlns="http://www.w3.org/2000/svg" viewBox="0 0 80.76 95"><defs><style>.cls-1{fill:#daa250;}</style></defs><title>Ativo 1</title><g id="Camada_2" data-name="Camada 2"><g id="Modo_de_isolamento" data-name="Modo de isolamento"><path class="cls-1" d="M80.38,55.47,74.53,27.63a34.84,34.84,0,0,0-68.18,0L.5,55.47A24.49,24.49,0,0,0,0,60.21,24,24,0,0,0,5.55,75.44v7A12.56,12.56,0,0,0,18.05,95a1.38,1.38,0,0,0,1.41-1.41V88.65a30.15,30.15,0,0,1,41.76,0v4.94A1.38,1.38,0,0,0,62.63,95a12.56,12.56,0,0,0,12.5-12.51v-7a23.44,23.44,0,0,0,5.55-15.23A15,15,0,0,0,80.38,55.47ZM72.91,74a1.67,1.67,0,0,0-.3.91v7.56a9.79,9.79,0,0,1-8.37,9.69V51.53a1.38,1.38,0,0,0-1.41-1.41,10,10,0,0,1-10-9.78V33.28a1.31,1.31,0,0,0-1-1.31A42.64,42.64,0,0,1,26.52,13.51a1.26,1.26,0,0,0-1.11-.6,1.89,1.89,0,0,0-1.21.5,34.77,34.77,0,0,0-7.36,21.38V61.42a1.42,1.42,0,0,0,2.83,0V34.79a31.81,31.81,0,0,1,5.54-18A46,46,0,0,0,49.92,34.39v6a12.13,12.13,0,0,0,3.83,8.87,12.86,12.86,0,0,0,7.57,3.53V84.81a33,33,0,0,0-41.76,0v-18a1.41,1.41,0,0,0-2.82,0V92a9.78,9.78,0,0,1-8.37-9.68V74.73a1.42,1.42,0,0,0-.3-.91A21,21,0,0,1,2.82,60a19.6,19.6,0,0,1,.41-4.24L9.08,27.94a32.05,32.05,0,0,1,62.72,0l5.85,27.83A19.6,19.6,0,0,1,78.06,60,21.24,21.24,0,0,1,72.91,74Z"/></g></g></svg>