<svg xmlns="http://www.w3.org/2000/svg" viewBox="0 0 79.5 96.66"><defs><style>.cls-1{fill:#daa250;}</style></defs><title>medalha</title><g id="Camada_2" data-name="Camada 2"><g id="Camada_1-2" data-name="Camada 1"><path class="cls-1" d="M79.4,84.57,66.52,55.15,66.6,55a34.49,34.49,0,0,0,1.14-39.38,1.18,1.18,0,0,0-1.62-.34,1.19,1.19,0,0,0-.34,1.63,32.22,32.22,0,1,1-3.07-4,1.17,1.17,0,0,0,1.65.08,1.18,1.18,0,0,0,.09-1.66A34.53,34.53,0,0,0,12.22,56.55l.1.12-.06.14L.1,84.57a1.16,1.16,0,0,0,.16,1.21,1.18,1.18,0,0,0,1.14.42l14.72-2.85L24,96.1a1.2,1.2,0,0,0,1,.56h.08a1.18,1.18,0,0,0,1-.7L37.86,69.07H38c1.12,0,2.26,0,3.39-.09h.18L53.42,96a1.16,1.16,0,0,0,1,.7h.08a1.17,1.17,0,0,0,1-.56l7.89-12.75L78.1,86.2a1.18,1.18,0,0,0,1.14-.42,1.16,1.16,0,0,0,.16-1.21ZM35.23,69.22,24.83,93,17.69,81.43a1.2,1.2,0,0,0-1.22-.54L3.14,83.47,14,58.58l.26.26A34.62,34.62,0,0,0,35,68.87l.34,0ZM63,80.89a1.2,1.2,0,0,0-1.22.54L54.67,93,44,68.68l.32-.05A34.6,34.6,0,0,0,64.6,57.5l.26-.29.15.36,11.35,25.9Z"/><path class="cls-1" d="M52.08,30.68a1.18,1.18,0,0,0-2.35,0v2.16a1.18,1.18,0,0,0,2.35,0Z"/><path class="cls-1" d="M27.91,30.68a1.18,1.18,0,0,0-2.35,0v2.16a1.18,1.18,0,0,0,2.35,0Z"/><path class="cls-1" d="M49.83,38.09H52a1.18,1.18,0,1,0,0-2.35H49.83a1.18,1.18,0,1,0,0,2.35Z"/><path class="cls-1" d="M25.66,38.09h2.15a1.18,1.18,0,0,0,0-2.35H25.66a1.18,1.18,0,1,0,0,2.35Z"/><path class="cls-1" d="M43.26,35.13V32.68a1.18,1.18,0,0,0-1.18-1.17H35.56a1.18,1.18,0,0,0-1.18,1.17v2.45a4.44,4.44,0,0,0,8.88,0Zm-2.35,0a2.09,2.09,0,1,1-4.18,0V33.86h4.18Z"/><path class="cls-1" d="M20,18a1.14,1.14,0,0,0-.73-.26h-.13a1.18,1.18,0,0,0-.79.43,25.93,25.93,0,0,0-5.71,16.32,26.19,26.19,0,1,0,9.74-20.36A1.1,1.1,0,0,0,22,15a1.17,1.17,0,0,0,1,1.3,1.15,1.15,0,0,0,.86-.26A23.82,23.82,0,1,1,15,34.54a23.54,23.54,0,0,1,5.2-14.85A1.18,1.18,0,0,0,20,18Z"/></g></g></svg>