<svg xmlns="http://www.w3.org/2000/svg" viewBox="0 0 130 34.62"><defs><style>.cls-1{fill:#daa250;}</style></defs><title>bigode</title><g id="Camada_2" data-name="Camada 2"><g id="Modo_de_isolamento" data-name="Modo de isolamento"><path class="cls-1" d="M129.4,6h0a1.45,1.45,0,0,0-1.56-.11A26.45,26.45,0,0,1,115,9.39C108.82,9.39,103.22,7,97.8,4.6,92.59,2.33,87.22,0,81.51,0,76.16,0,71.07,2,66,6.24L65,7l-1-.78C58.92,2,53.84,0,48.49,0,42.78,0,37.4,2.34,32.2,4.6,26.78,7,21.18,9.39,15,9.39A26.45,26.45,0,0,1,2.16,5.9,1.45,1.45,0,0,0,.6,6,1.45,1.45,0,0,0,0,7.47c1.14,5.93,6.1,12.68,13.26,18.05,7.83,5.86,16.87,9.1,25.45,9.1,9.56,0,18.25-4.09,25.14-11.82L65,21.55l1.12,1.25C73,30.53,81.7,34.62,91.26,34.62c8.58,0,17.62-3.23,25.45-9.1,7.16-5.37,12.12-12.12,13.26-18A1.45,1.45,0,0,0,129.4,6Zm-5.18,7.49c-5.88,9-19.09,18.19-33,18.19-9.88,0-18.32-4.52-25.09-13.44a1.53,1.53,0,0,0-2.33,0c-6.78,8.92-15.22,13.44-25.1,13.44-13.87,0-27.08-9.15-33-18.19L3.59,10.15l3.85,1.1A26.85,26.85,0,0,0,15,12.32c6.83,0,12.72-2.56,18.41-5,5.15-2.24,10-4.35,15.12-4.35,5.3,0,10.23,2.27,15.52,7.16a1.46,1.46,0,0,0,2,0C71.28,5.2,76.21,2.93,81.51,2.93c5.11,0,10,2.11,15.12,4.35,5.69,2.48,11.58,5,18.41,5a26.78,26.78,0,0,0,7.51-1.07l3.86-1.1Z"/></g></g></svg>